<?xml version="1.0" encoding="UTF-8" standalone="no"?>
<svg
   xmlns:dc="http://purl.org/dc/elements/1.1/"
   xmlns:cc="http://creativecommons.org/ns#"
   xmlns:rdf="http://www.w3.org/1999/02/22-rdf-syntax-ns#"
   xmlns:svg="http://www.w3.org/2000/svg"
   xmlns="http://www.w3.org/2000/svg"
   xmlns:sodipodi="http://sodipodi.sourceforge.net/DTD/sodipodi-0.dtd"
   xmlns:inkscape="http://www.inkscape.org/namespaces/inkscape"
   inkscape:version="1.0 (4035a4fb49, 2020-05-01)"
   sodipodi:docname="Exanarch_flag.svg"
   viewBox="0 0 2000 1200"
   height="1200"
   width="2000"
   id="svg2"
   version="1.1">
  <metadata
     id="metadata8">
    <rdf:RDF>
      <cc:Work
         rdf:about="">
        <dc:format>image/svg+xml</dc:format>
        <dc:type
           rdf:resource="http://purl.org/dc/dcmitype/StillImage" />
        <dc:title></dc:title>
      </cc:Work>
    </rdf:RDF>
  </metadata>
  <defs
     id="defs6" />
  <sodipodi:namedview
     inkscape:current-layer="g10"
     inkscape:window-maximized="1"
     inkscape:window-y="-8"
     inkscape:window-x="-8"
     inkscape:cy="600"
     inkscape:cx="1000"
     inkscape:zoom="0.5295"
     showgrid="false"
     id="namedview4"
     inkscape:window-height="1017"
     inkscape:window-width="1920"
     inkscape:pageshadow="2"
     inkscape:pageopacity="0"
     guidetolerance="10"
     gridtolerance="10"
     objecttolerance="10"
     borderopacity="1"
     bordercolor="#666666"
     pagecolor="#ffffff" />
  <g
     inkscape:label="Image 1"
     id="layer1"
     inkscape:groupmode="layer">
    <rect
       y="0.00816595"
       x="0"
       height="1199.9918"
       width="2000"
       id="rect850"
       style="fill:#ffffff;fill-opacity:1;stroke-linecap:round;stroke-linejoin:round;paint-order:markers fill stroke" />
  </g>
  <g
     id="g10"
     inkscape:label="Image"
     inkscape:groupmode="layer">
    <g
       id="g847">
      <path
         style="fill:#000000;stroke-width:1.33333"
         d="m 736.66667,1188.3528 c -41.52984,-36.1877 -71.26752,-70.1345 -102.51022,-117.0195 -25.86562,-38.8158 -36.69956,-60.2344 -48.80957,-96.49618 C 570.61829,930.73433 564.27439,896.31981 563.07204,854 c -0.86568,-30.4696 0.12093,-40.46785 7.09991,-71.94776 10.09397,-45.53083 19.42258,-71.5042 43.35752,-120.71891 31.7949,-65.37626 41.05732,-79.026 79.84609,-117.66666 14.53884,-14.48334 27.14703,-26.33334 28.01819,-26.33334 0.875,0 1.28389,1.04436 0.91357,2.33334 C 721.93863,520.95 720.04316,527.4 718.09517,534 c -4.46642,15.13276 -9.59981,40.40628 -11.37437,56 -2.38903,20.99337 -1.73628,70.98807 1.20271,92.11671 10.03532,72.14493 42.60688,156.52282 79.42572,205.75544 17.24533,23.05974 43.10326,48.25813 67.33529,65.6178 21.15873,15.15798 52.05068,33.45722 68.48672,40.56898 42.97819,18.59637 100.74316,34.21267 140.16206,37.89177 24.9229,2.3261 97.0801,3.9048 122.6667,2.6838 39.6889,-1.894 99.9879,-14.4311 131.7672,-27.3964 60.5793,-24.71515 118.0188,-70.69053 163.13,-130.57143 32.6371,-43.32268 52.0271,-80.45016 71.0312,-136.0085 26.6465,-77.90138 32.7679,-155.24093 18.0569,-228.13808 -3.1141,-15.43114 -13.5154,-48.15149 -17.5432,-55.18676 L 1550.5339,454 l 0.5501,3.33333 c 0.3027,1.83334 2.4088,12.33334 4.6803,23.33334 10.1494,49.14916 8.9413,112.46256 -3.1319,164.12625 -13.8187,59.13299 -54.8444,144.84019 -94.3725,197.1542 -9.6563,12.77973 -42.1206,46.19203 -58.9266,60.64729 -34.4765,29.65407 -78.8169,56.35794 -110.6666,66.64858 -28.2345,9.12256 -44.9367,13.13372 -76.6667,18.41209 -21.5225,3.58032 -23.1015,3.65483 -72.7431,3.43217 -74.2062,-0.33282 -97.1494,-2.59104 -128.4022,-12.63813 -36.25565,-11.65541 -85.72322,-33.98401 -107.52137,-48.53284 -23.94708,-15.98309 -60.12576,-48.70851 -77.91218,-70.47547 -11.83315,-14.48137 -27.15935,-37.6454 -34.25366,-51.77101 -6.73114,-13.40251 -21.22116,-49.56713 -25.67817,-64.08833 -2.92136,-9.51796 -6.44747,-28.85742 -10.37715,-56.9148 -1.78272,-12.72842 -2.3445,-25.96094 -2.37748,-56 -0.0388,-35.30174 0.26254,-40.9298 2.9393,-54.90891 7.47698,-39.04765 23.04053,-69.64411 46.85206,-92.10669 24.06607,-22.70271 47.5377,-34.59738 84.73178,-42.93932 8.64316,-1.93851 17.59597,-3.34167 19.89516,-3.11815 l 4.18034,0.4064 0.81195,30 c 0.67624,24.98637 1.27421,31.50728 3.57803,39.01913 8.4787,27.64579 19.49218,49.70795 35.93302,71.98087 l 8.6118,11.66667 H 980.13407 1000 V 600 v 9.33333 h -20.57461 -20.5746 l -11.42648,12.33334 c -18.49964,19.96786 -29.79622,36.91884 -38.59642,57.91554 -11.96717,28.55294 -18.30386,77.32095 -12.32,94.8165 4.64216,13.57268 19.65999,24.46137 43.11376,31.25969 10.19771,2.95591 11.5271,3.00469 76.37835,2.80331 62.9497,-0.1955 67.0476,-0.35944 88.6667,-3.54751 49.4044,-7.28543 92.9293,-21.35155 128.7618,-41.61256 61.3439,-34.68608 111.4939,-83.98919 153.2634,-150.67531 12.062,-19.25721 24.339,-42.95638 39.3498,-75.95966 16.2475,-35.72228 20.2947,-46.28763 28.091,-73.33334 13.33,-46.24254 16.4517,-67.072 16.4858,-110 0.053,-66.86112 -10.8602,-122.25868 -34.3017,-174.12081 -6.6223,-14.65113 -17.9587,-34.5744 -25.6571,-45.0912 -2.1961,-3.00006 -7.0937,-9.65465 -10.8837,-14.78799 C 1374.8028,85.508331 1323.6319,34.219343 1287.587,6.8854053 L 1278.5073,0 H 1639.2536 2000 v 600 600 l -625,-0.014 -625,-0.015 z"
         id="path837" />
      <path
         id="path837-4"
         d="M 0.88888,1199.1193 C 0.4,1198.6304 0,928.6304 0,599.11928 V 0.00816595 h 618.35704 618.35706 l 15.9763,13.59104005 c 39.7457,33.81167 74.6248,73.58357 107.9348,123.075634 19.4475,28.89493 30.9127,52.64679 43.2434,89.58405 14.0042,41.95118 21.1004,79.32414 22.3573,117.74927 0.8925,27.28569 -0.1465,35.91498 -9.7707,81.14337 -7.9237,37.23684 -16.752,61.49701 -42.767,117.52331 -15.9576,34.36673 -20.9354,43.57304 -33.8955,62.69105 -14.4076,21.25329 -63.0235,73.1892 -65.8576,70.35512 -0.3348,-0.33475 0.5836,-4.07381 2.0407,-8.30903 9.814,-28.52494 15.4049,-85.14345 12.2994,-124.5549 -3.0562,-38.78491 -10.0845,-70.50551 -25.4971,-115.07499 -30.5634,-88.38192 -72.3181,-145.28106 -139.1606,-189.6342 -36.8751,-24.46833 -70.1969,-39.4958 -116.9718,-52.75192 -49.0729,-13.9074 -80.73498,-17.48517 -154.96076,-17.51036 -49.76867,-0.0169 -64.482,1.24715 -101.68494,8.7358 -39.59358,7.96988 -69.01209,18.28628 -108.81862,38.16019 -37.69556,18.81999 -65.20455,36.37989 -82.32708,52.55217 -12.61924,11.9189 -33.60352,35.41684 -47.16056,52.80986 -35.13239,45.07311 -77.3604,147.92902 -88.89796,216.53121 -4.55399,27.07796 -5.80944,48.79116 -5.10811,88.34557 0.51895,29.26789 1.2372,40.32719 3.44132,52.98776 4.16077,23.89952 10.93828,46.84275 20.87228,70.65692 12.91199,30.95309 14.06225,32.3202 6.66759,7.92452 -6.02864,-19.88905 -12.23711,-50.66972 -13.96735,-69.24811 -2.55555,-27.43997 -1.14391,-81.72354 2.47915,-95.33333 0.68326,-2.56667 3.12705,-13.96667 5.43062,-25.33333 4.5331,-22.36784 14.09371,-52.09694 27.65683,-86 13.94521,-34.85816 43.29472,-87.97087 64.60801,-116.91875 7.22095,-9.80753 43.60714,-47.46353 59.71995,-61.80405 27.44981,-24.43055 70.44083,-51.87823 98.73727,-63.03895 22.96705,-9.0587 69.47953,-19.68768 103.33333,-23.61361 22.22007,-2.5768 115.98713,-3.05885 136.66667,-0.70261 32.13308,3.66128 63.59624,12.91146 106.38386,31.2769 30.1196,12.92807 68.5756,37.1449 87.8853,55.34391 26.6237,25.0924 58.1308,62.77285 68.386,81.78537 6.6953,12.4126 21.4257,46.85089 27.4833,64.25347 5.2575,15.10404 11.1978,43.25898 14.7867,70.08498 3.31,24.74036 3.3533,85.41008 0.074,104.01586 -4.8528,27.53536 -12.1453,46.74952 -25.5458,67.30772 -21.3667,32.77949 -55.091,56.42422 -94.1203,65.98961 -9.1666,2.24659 -20.0278,4.44637 -24.136,4.88841 l -7.4694,0.80371 -0.9392,-23.83599 c -1.5009,-38.09033 -3.4994,-46.75554 -17.49,-75.83598 -7.8762,-16.37124 -14.7006,-27.37448 -25.8041,-41.6053 l -7.4945,-9.60529 -18.3334,-0.0614 -18.33313,-0.0613 v -9.33338 -9.33333 h 19.26453 19.2646 l 12.8421,-14.33334 c 7.0632,-7.88333 15.5469,-18.1148 18.8527,-22.7366 20.1555,-28.17881 33.4251,-70.20832 34.1884,-108.28674 0.2386,-11.90511 -0.016,-13.2406 -4.1255,-21.5915 -5.1136,-10.3926 -10.5608,-15.19796 -24.5435,-21.65129 -20.8019,-9.60057 -18.4783,-9.39013 -103.74333,-9.39561 -74.38955,-0.005 -77.16169,0.0865 -93.33333,3.07292 -17.14939,3.167 -48.87311,10.73669 -60.66667,14.47586 -24.06731,7.6306 -58.30464,24.87702 -86.44417,43.54466 -25.59404,16.97897 -40.20244,29.41654 -65.38966,55.67262 -38.89561,40.54623 -60.1614,71.81476 -90.15594,132.56235 -26.21683,53.0966 -29.11596,59.78119 -36.54099,84.25317 -14.86875,49.00562 -16.95832,62.76456 -16.97104,111.74683 -0.0151,58.15577 6.07748,99.49795 21.71244,147.33333 11.43269,34.9785 26.00943,64.1773 44.67905,89.497 18.79152,25.4851 21.10998,28.2319 46.04039,54.5483 29.48824,31.1275 40.67,41.5106 61.34073,56.9593 8.58228,6.4142 15.63228,12.1121 15.66667,12.6621 0.0772,1.2351 -708.48036,1.346 -709.71527,0.1111 z"
         style="fill:#cee6ff;stroke-width:1.33333;fill-opacity:1" />
    </g>
  </g>
</svg>
